<svg width="30" height="21" viewBox="0 0 30 21" fill="none" xmlns="http://www.w3.org/2000/svg">
<g filter="url(#filter0_d_116_146)">
<path d="M1 12.5092C1 13.7002 1.58339 14.8425 2.62184 15.6847C3.66029 16.5269 5.06872 17 6.53731 17H20.3806C21.4608 17.0009 22.5071 16.6945 23.3374 16.1341C24.1676 15.5738 24.7292 14.7949 24.9242 13.9333C25.1192 13.0716 24.9353 12.1818 24.4045 11.4188C23.8738 10.6558 23.0298 10.068 22.0196 9.75781C22.248 9.23112 22.2902 8.66315 22.1415 8.11803C21.9927 7.57292 21.6591 7.07238 21.1781 6.67297C20.6971 6.27355 20.088 5.99116 19.4196 5.85769C18.7511 5.72422 18.05 5.745 17.3954 5.91767C16.9719 4.60039 15.933 3.46848 14.4984 2.76164C13.0639 2.0548 11.3465 1.82854 9.70983 2.13077C8.07319 2.43299 6.64585 3.23998 5.73007 4.38083C4.81429 5.52168 4.48198 6.90682 4.80352 8.24291C3.69677 8.53916 2.73342 9.11094 2.05054 9.8769C1.36766 10.6429 1.00004 11.564 1 12.5092Z" fill="white"/>
<path d="M1 12.5092C1 13.7002 1.58339 14.8425 2.62184 15.6847C3.66029 16.5269 5.06872 17 6.53731 17H20.3806C21.4608 17.0009 22.5071 16.6945 23.3374 16.1341C24.1676 15.5738 24.7292 14.7949 24.9242 13.9333C25.1192 13.0716 24.9353 12.1818 24.4045 11.4188C23.8738 10.6558 23.0298 10.068 22.0196 9.75781C22.248 9.23112 22.2902 8.66315 22.1415 8.11803C21.9927 7.57292 21.6591 7.07238 21.1781 6.67297C20.6971 6.27355 20.088 5.99116 19.4196 5.85769C18.7511 5.72422 18.05 5.745 17.3954 5.91767C16.9719 4.60039 15.933 3.46848 14.4984 2.76164C13.0639 2.0548 11.3465 1.82854 9.70983 2.13077C8.07319 2.43299 6.64585 3.23998 5.73007 4.38083C4.81429 5.52168 4.48198 6.90682 4.80352 8.24291C3.69677 8.53916 2.73342 9.11094 2.05054 9.8769C1.36766 10.6429 1.00004 11.564 1 12.5092Z" stroke="white" stroke-width="1.5" stroke-linecap="round" stroke-linejoin="round"/>
</g>
<defs>
<filter id="filter0_d_116_146" x="0.25" y="0.25" width="29.5" height="20.5" filterUnits="userSpaceOnUse" color-interpolation-filters="sRGB">
<feFlood flood-opacity="0" result="BackgroundImageFix"/>
<feColorMatrix in="SourceAlpha" type="matrix" values="0 0 0 0 0 0 0 0 0 0 0 0 0 0 0 0 0 0 127 0" result="hardAlpha"/>
<feOffset dx="2" dy="1"/>
<feGaussianBlur stdDeviation="1"/>
<feComposite in2="hardAlpha" operator="out"/>
<feColorMatrix type="matrix" values="0 0 0 0 0 0 0 0 0 0 0 0 0 0 0 0 0 0 0.25 0"/>
<feBlend mode="normal" in2="BackgroundImageFix" result="effect1_dropShadow_116_146"/>
<feBlend mode="normal" in="SourceGraphic" in2="effect1_dropShadow_116_146" result="shape"/>
</filter>
</defs>
</svg>
