<svg width="31" height="26" viewBox="0 0 31 26" fill="none" xmlns="http://www.w3.org/2000/svg">
<g filter="url(#filter0_d_116_192)">
<path d="M4 19.0664C4.00022 19.0957 3.99131 19.1244 3.97451 19.1484C3.9577 19.1724 3.93383 19.1906 3.90622 19.2004L3.33962 19.4065L3.13366 19.9732C3.12351 20.0006 3.10524 20.0242 3.08129 20.0408C3.05734 20.0575 3.02887 20.0664 2.9997 20.0664C2.97052 20.0664 2.94205 20.0575 2.9181 20.0408C2.89416 20.0242 2.87588 20.0006 2.86573 19.9732L2.65968 19.4059L2.09317 19.2004C2.06583 19.1903 2.04224 19.172 2.02558 19.148C2.00893 19.1241 2 19.0956 2 19.0664C2 19.0372 2.00893 19.0087 2.02558 18.9848C2.04224 18.9608 2.06583 18.9426 2.09317 18.9324L2.66031 18.7263L2.86573 18.1596C2.87588 18.1323 2.89416 18.1087 2.9181 18.092C2.94205 18.0753 2.97052 18.0664 2.9997 18.0664C3.02887 18.0664 3.05734 18.0753 3.08129 18.092C3.10524 18.1087 3.12351 18.1323 3.13366 18.1596L3.33971 18.7269L3.90622 18.9324C3.93383 18.9422 3.9577 18.9604 3.97451 18.9844C3.99131 19.0084 4.00022 19.0371 4 19.0664Z" fill="#FFFFF8"/>
<path d="M7 14.0664C7.00022 14.0957 6.99131 14.1244 6.97451 14.1484C6.9577 14.1724 6.93383 14.1906 6.90622 14.2004L6.33962 14.4065L6.13366 14.9732C6.12351 15.0006 6.10524 15.0242 6.08129 15.0408C6.05734 15.0575 6.02887 15.0664 5.9997 15.0664C5.97052 15.0664 5.94205 15.0575 5.9181 15.0408C5.89416 15.0242 5.87588 15.0006 5.86573 14.9732L5.65968 14.4059L5.09317 14.2004C5.06583 14.1903 5.04224 14.172 5.02558 14.148C5.00893 14.1241 5 14.0956 5 14.0664C5 14.0372 5.00893 14.0087 5.02558 13.9848C5.04224 13.9608 5.06583 13.9426 5.09317 13.9324L5.66031 13.7263L5.86573 13.1596C5.87588 13.1323 5.89416 13.1087 5.9181 13.092C5.94205 13.0753 5.97052 13.0664 5.9997 13.0664C6.02887 13.0664 6.05734 13.0753 6.08129 13.092C6.10524 13.1087 6.12351 13.1323 6.13366 13.1596L6.33971 13.7269L6.90622 13.9324C6.93383 13.9422 6.9577 13.9604 6.97451 13.9844C6.99131 14.0084 7.00022 14.0371 7 14.0664Z" fill="#FFFFF8"/>
<path d="M13 4C13.0002 4.02932 12.9913 4.05797 12.9745 4.08199C12.9577 4.10601 12.9338 4.12419 12.9062 4.13401L12.3396 4.34012L12.1337 4.9068C12.1235 4.93415 12.1052 4.95775 12.0813 4.97441C12.0573 4.99107 12.0289 5 11.9997 5C11.9705 5 11.9421 4.99107 11.9181 4.97441C11.8942 4.95775 11.8759 4.93415 11.8657 4.9068L11.6597 4.33949L11.0932 4.13401C11.0658 4.12386 11.0422 4.10557 11.0256 4.08162C11.0089 4.05766 11 4.02918 11 4C11 3.97082 11.0089 3.94234 11.0256 3.91838C11.0422 3.89443 11.0658 3.87614 11.0932 3.86599L11.6603 3.65988L11.8657 3.0932C11.8759 3.06585 11.8942 3.04225 11.9181 3.02559C11.9421 3.00893 11.9705 3 11.9997 3C12.0289 3 12.0573 3.00893 12.0813 3.02559C12.1052 3.04225 12.1235 3.06585 12.1337 3.0932L12.3397 3.66051L12.9062 3.86599C12.9338 3.87581 12.9577 3.89399 12.9745 3.91801C12.9913 3.94203 13.0002 3.97068 13 4Z" fill="#FFFFF8"/>
<path d="M24 10C24.0002 10.0293 23.9913 10.058 23.9745 10.082C23.9577 10.106 23.9338 10.1242 23.9062 10.134L23.3396 10.3401L23.1337 10.9068C23.1235 10.9342 23.1052 10.9577 23.0813 10.9744C23.0573 10.9911 23.0289 11 22.9997 11C22.9705 11 22.9421 10.9911 22.9181 10.9744C22.8942 10.9577 22.8759 10.9342 22.8657 10.9068L22.6597 10.3395L22.0932 10.134C22.0658 10.1239 22.0422 10.1056 22.0256 10.0816C22.0089 10.0577 22 10.0292 22 10C22 9.97082 22.0089 9.94234 22.0256 9.91838C22.0422 9.89443 22.0658 9.87614 22.0932 9.86599L22.6603 9.65988L22.8657 9.0932C22.8759 9.06585 22.8942 9.04225 22.9181 9.02559C22.9421 9.00893 22.9705 9 22.9997 9C23.0289 9 23.0573 9.00893 23.0813 9.02559C23.1052 9.04225 23.1235 9.06585 23.1337 9.0932L23.3397 9.66051L23.9062 9.86599C23.9338 9.87581 23.9577 9.89399 23.9745 9.91801C23.9913 9.94203 24.0002 9.97068 24 10Z" fill="#FFFFF8"/>
<path d="M11 18C11.0002 18.0293 10.9913 18.058 10.9745 18.082C10.9577 18.106 10.9338 18.1242 10.9062 18.134L10.3396 18.3401L10.1337 18.9068C10.1235 18.9342 10.1052 18.9577 10.0813 18.9744C10.0573 18.9911 10.0289 19 9.9997 19C9.97052 19 9.94205 18.9911 9.9181 18.9744C9.89416 18.9577 9.87588 18.9342 9.86573 18.9068L9.65968 18.3395L9.09317 18.134C9.06583 18.1239 9.04224 18.1056 9.02558 18.0816C9.00893 18.0577 9 18.0292 9 18C9 17.9708 9.00893 17.9423 9.02558 17.9184C9.04224 17.8944 9.06583 17.8761 9.09317 17.866L9.66031 17.6599L9.86573 17.0932C9.87588 17.0658 9.89416 17.0423 9.9181 17.0256C9.94205 17.0089 9.97052 17 9.9997 17C10.0289 17 10.0573 17.0089 10.0813 17.0256C10.1052 17.0423 10.1235 17.0658 10.1337 17.0932L10.3397 17.6605L10.9062 17.866C10.9338 17.8758 10.9577 17.894 10.9745 17.918C10.9913 17.942 11.0002 17.9707 11 18Z" fill="#FFFFF8"/>
<path d="M15 21.8008C15.0002 21.8301 14.9913 21.8588 14.9745 21.8828C14.9577 21.9068 14.9338 21.925 14.9062 21.9348L14.3396 22.1409L14.1337 22.7076C14.1235 22.7349 14.1052 22.7585 14.0813 22.7752C14.0573 22.7919 14.0289 22.8008 13.9997 22.8008C13.9705 22.8008 13.9421 22.7919 13.9181 22.7752C13.8942 22.7585 13.8759 22.7349 13.8657 22.7076L13.6597 22.1403L13.0932 21.9348C13.0658 21.9246 13.0422 21.9064 13.0256 21.8824C13.0089 21.8584 13 21.83 13 21.8008C13 21.7716 13.0089 21.7431 13.0256 21.7192C13.0422 21.6952 13.0658 21.6769 13.0932 21.6668L13.6603 21.4607L13.8657 20.894C13.8759 20.8666 13.8942 20.843 13.9181 20.8264C13.9421 20.8097 13.9705 20.8008 13.9997 20.8008C14.0289 20.8008 14.0573 20.8097 14.0813 20.8264C14.1052 20.843 14.1235 20.8666 14.1337 20.894L14.3397 21.4613L14.9062 21.6668C14.9338 21.6766 14.9577 21.6948 14.9745 21.7188C14.9913 21.7428 15.0002 21.7715 15 21.8008Z" fill="#FFFFF8"/>
<path d="M22 16C22.0002 16.0293 21.9913 16.058 21.9745 16.082C21.9577 16.106 21.9338 16.1242 21.9062 16.134L21.3396 16.3401L21.1337 16.9068C21.1235 16.9342 21.1052 16.9577 21.0813 16.9744C21.0573 16.9911 21.0289 17 20.9997 17C20.9705 17 20.9421 16.9911 20.9181 16.9744C20.8942 16.9577 20.8759 16.9342 20.8657 16.9068L20.6597 16.3395L20.0932 16.134C20.0658 16.1239 20.0422 16.1056 20.0256 16.0816C20.0089 16.0577 20 16.0292 20 16C20 15.9708 20.0089 15.9423 20.0256 15.9184C20.0422 15.8944 20.0658 15.8761 20.0932 15.866L20.6603 15.6599L20.8657 15.0932C20.8759 15.0658 20.8942 15.0423 20.9181 15.0256C20.9421 15.0089 20.9705 15 20.9997 15C21.0289 15 21.0573 15.0089 21.0813 15.0256C21.1052 15.0423 21.1235 15.0658 21.1337 15.0932L21.3397 15.6605L21.9062 15.866C21.9338 15.8758 21.9577 15.894 21.9745 15.918C21.9913 15.942 22.0002 15.9707 22 16Z" fill="#FFFFF8"/>
<path d="M25 21.9336C25.0004 21.9922 24.9826 22.0495 24.949 22.0976C24.9154 22.1456 24.8677 22.182 24.8124 22.2016L23.6792 22.6138L23.2673 23.7472C23.247 23.8019 23.2105 23.8491 23.1626 23.8824C23.1147 23.9157 23.0577 23.9336 22.9994 23.9336C22.941 23.9336 22.8841 23.9157 22.8362 23.8824C22.7883 23.8491 22.7518 23.8019 22.7315 23.7472L22.3194 22.6126L21.1863 22.2016C21.1317 22.1813 21.0845 22.1447 21.0512 22.0968C21.0179 22.0489 21 21.992 21 21.9336C21 21.8752 21.0179 21.8183 21.0512 21.7704C21.0845 21.7224 21.1317 21.6859 21.1863 21.6656L22.3206 21.2534L22.7315 20.12C22.7518 20.0653 22.7883 20.0181 22.8362 19.9848C22.8841 19.9515 22.941 19.9336 22.9994 19.9336C23.0577 19.9336 23.1147 19.9515 23.1626 19.9848C23.2105 20.0181 23.247 20.0653 23.2673 20.12L23.6794 21.2546L24.8124 21.6656C24.8677 21.6852 24.9154 21.7216 24.949 21.7696C24.9826 21.8176 25.0004 21.875 25 21.9336Z" fill="#FFFFF8"/>
<path d="M5.99999 8.33203C6.00045 8.39066 5.98263 8.44798 5.94901 8.49601C5.9154 8.54404 5.86766 8.58041 5.81244 8.60005L4.67924 9.01226L4.26733 10.1456C4.24703 10.2003 4.21047 10.2475 4.16257 10.2808C4.11468 10.3142 4.05773 10.332 3.99939 10.332C3.94105 10.332 3.8841 10.3142 3.83621 10.2808C3.78831 10.2475 3.75175 10.2003 3.73145 10.1456L3.31936 9.01101L2.18635 8.60005C2.13165 8.57974 2.08448 8.54318 2.05117 8.49526C2.01786 8.44735 2 8.39039 2 8.33203C2 8.27367 2.01786 8.21671 2.05117 8.1688C2.08448 8.12089 2.13165 8.08432 2.18635 8.06401L3.32062 7.6518L3.73145 6.51843C3.75175 6.46372 3.78831 6.41654 3.83621 6.38321C3.8841 6.34989 3.94105 6.33203 3.99939 6.33203C4.05773 6.33203 4.11468 6.34989 4.16257 6.38321C4.21047 6.41654 4.24703 6.46372 4.26733 6.51843L4.67942 7.65305L5.81244 8.06401C5.86766 8.08365 5.9154 8.12002 5.94901 8.16805C5.98263 8.21609 6.00045 8.2734 5.99999 8.33203Z" fill="#FFFFF8"/>
<path d="M16 12C16.0004 12.0586 15.9826 12.1159 15.949 12.164C15.9154 12.212 15.8677 12.2484 15.8124 12.268L14.6792 12.6802L14.2673 13.8136C14.247 13.8683 14.2105 13.9155 14.1626 13.9488C14.1147 13.9821 14.0577 14 13.9994 14C13.941 14 13.8841 13.9821 13.8362 13.9488C13.7883 13.9155 13.7518 13.8683 13.7315 13.8136L13.3194 12.679L12.1863 12.268C12.1317 12.2477 12.0845 12.2111 12.0512 12.1632C12.0179 12.1153 12 12.0584 12 12C12 11.9416 12.0179 11.8847 12.0512 11.8368C12.0845 11.7889 12.1317 11.7523 12.1863 11.732L13.3206 11.3198L13.7315 10.1864C13.7518 10.1317 13.7883 10.0845 13.8362 10.0512C13.8841 10.0179 13.941 10 13.9994 10C14.0577 10 14.1147 10.0179 14.1626 10.0512C14.2105 10.0845 14.247 10.1317 14.2673 10.1864L14.6794 11.321L15.8124 11.732C15.8677 11.7516 15.9154 11.788 15.949 11.836C15.9826 11.8841 16.0004 11.9414 16 12Z" fill="#FFFFF8"/>
<path d="M29 4.06641C29.0004 4.12504 28.9826 4.18235 28.949 4.23039C28.9154 4.27842 28.8677 4.31478 28.8124 4.33443L27.6792 4.74664L27.2673 5.88C27.247 5.93472 27.2105 5.9819 27.1626 6.01522C27.1147 6.04855 27.0577 6.06641 26.9994 6.06641C26.941 6.06641 26.8841 6.04855 26.8362 6.01522C26.7883 5.9819 26.7518 5.93472 26.7315 5.88L26.3194 4.74539L25.1863 4.33443C25.1317 4.31412 25.0845 4.27755 25.0512 4.22964C25.0179 4.18173 25 4.12477 25 4.06641C25 4.00805 25.0179 3.95108 25.0512 3.90317C25.0845 3.85526 25.1317 3.8187 25.1863 3.79839L26.3206 3.38617L26.7315 2.25281C26.7518 2.1981 26.7883 2.15091 26.8362 2.11759C26.8841 2.08427 26.941 2.06641 26.9994 2.06641C27.0577 2.06641 27.1147 2.08427 27.1626 2.11759C27.2105 2.15091 27.247 2.1981 27.2673 2.25281L27.6794 3.38742L28.8124 3.79839C28.8677 3.81803 28.9154 3.85439 28.949 3.90243C28.9826 3.95046 29.0004 4.00778 29 4.06641Z" fill="#FFFFF8"/>
</g>
<defs>
<filter id="filter0_d_116_192" x="0" y="0.0664062" width="31" height="25.8672" filterUnits="userSpaceOnUse" color-interpolation-filters="sRGB">
<feFlood flood-opacity="0" result="BackgroundImageFix"/>
<feColorMatrix in="SourceAlpha" type="matrix" values="0 0 0 0 0 0 0 0 0 0 0 0 0 0 0 0 0 0 127 0" result="hardAlpha"/>
<feOffset/>
<feGaussianBlur stdDeviation="1"/>
<feComposite in2="hardAlpha" operator="out"/>
<feColorMatrix type="matrix" values="0 0 0 0 0.8625 0 0 0 0 0.8625 0 0 0 0 0.8625 0 0 0 1 0"/>
<feBlend mode="normal" in2="BackgroundImageFix" result="effect1_dropShadow_116_192"/>
<feBlend mode="normal" in="SourceGraphic" in2="effect1_dropShadow_116_192" result="shape"/>
</filter>
</defs>
</svg>
